F.ONE new movie shot on RED in Magadascar last summer.
Antandroy is the combination of kitesurfing, surfing, SUP on one of the most remote spot.
Also an amazing encounter between two peoples


General
Complete name                    : G:MoviesKiteboarding VideosANTANDROY_FullHD.mp4
Format                           : MPEG-4
Format profile                   : Base Media / Version 2
Codec ID                         : mp42
File size                        : 719 MiB
Duration                         : 24mn 10s
Overall bit rate                 : 4 156 Kbps
Encoded date                     : UTC 2011-10-25 16:46:04
Tagged date                      : UTC 2011-10-25 16:46:04
┬⌐TIM                             : 01:00:00:00
┬⌐TSC                             : 25
┬⌐TSZ                             : 1

Video
ID                               : 1
Format                           : AVC
Format/Info                      : Advanced Video Codec
Format profile                   : Main@L4.2
Format settings, CABAC           : Yes
Format settings, ReFrames        : 3 frames
Codec ID                         : avc1
Codec ID/Info                    : Advanced Video Coding
Duration                         : 24mn 10s
Bit rate mode                    : Variable
Bit rate                         : 3 995 Kbps
Width                            : 1 920 pixels
Height                           : 1 080 pixels
Display aspect ratio             : 16:9
Frame rate mode                  : Constant
Frame rate                       : 25.000 fps
Standard                         : PAL
Color space                      : YUV
Chroma subsampling               : 4:2:0
Bit depth                        : 8 bits
Scan type                        : Progressive
Bits/(Pixel*Frame)               : 0.077
Stream size                      : 691 MiB (96%)
Language                         : English
Encoded date                     : UTC 2011-10-25 16:46:04
Tagged date                      : UTC 2011-10-25 16:46:04

Audio
ID                               : 2
Format                           : AAC
Format/Info                      : Advanced Audio Codec
Format version                   : Version 4
Format profile                   : LC
Format settings, SBR             : No
Codec ID                         : 40
Duration                         : 24mn 10s
Bit rate mode                    : Variable
Bit rate                         : 157 Kbps
Maximum bit rate                 : 255 Kbps
Channel(s)                       : 2 channels
Channel positions                : Front: L R
Sampling rate                    : 48.0 KHz
Stream size                      : 27.2 MiB (4%)
Language                         : English
Encoded date                     : UTC 2011-10-25 16:46:04
Tagged date                      : UTC 2011-10-25 16:46:04


Enjoy and don't forget to SEED...
